<svg width="165" height="16" viewBox="0 0 165 16" fill="none" xmlns="http://www.w3.org/2000/svg">
<path fill-rule="evenodd" clip-rule="evenodd" d="M88.6858 15.7404C88.3417 15.6184 87.9969 15.4187 87.9196 15.2965C87.8266 15.1494 87.666 15.1711 87.4439 15.3606C87.1594 15.6032 87.0604 15.585 86.7893 15.2395C86.5864 14.981 86.4333 14.9214 86.3693 15.0759C86.2537 15.3554 85.2173 15.1692 84.4057 14.7227C84.1216 14.5664 83.8657 14.455 83.8372 14.4749C83.6276 14.6204 83.5957 14.4462 83.7702 14.1107C83.9174 13.8282 84.1345 13.741 84.5076 13.8141C84.7983 13.8713 85.0363 14.0136 85.0363 14.1304C85.0363 14.247 85.177 14.2871 85.3491 14.2192C85.5211 14.1514 85.6619 14.2055 85.6619 14.3392C85.6619 14.473 85.7211 14.5216 85.7935 14.4472C85.8661 14.3729 86.1069 14.4119 86.329 14.5338C86.5509 14.656 87.3905 14.7917 88.1946 14.8356C89.6063 14.9124 90.2498 15.1681 90.2498 15.6519C90.2498 15.8062 90.1691 15.8 90.0069 15.6332C89.8219 15.4431 89.7099 15.4525 89.5377 15.6729C89.3644 15.8945 89.1652 15.9104 88.6858 15.7404ZM90.8755 15.7194C90.8755 15.546 90.7583 15.3494 90.6148 15.2826C90.4715 15.2157 90.7501 15.1947 91.2341 15.2358C91.7672 15.2813 92.281 15.1906 92.5375 15.006C93.0063 14.6685 93.0971 13.8794 92.7123 13.484C92.3755 13.1378 92.3964 11.201 92.7413 10.7738C93.1784 10.2325 96.7849 10.478 98.744 11.1823C99.5733 11.4807 100.483 11.7246 100.765 11.7246C101.047 11.7246 101.336 11.8211 101.407 11.939C101.478 12.0568 101.77 12.1533 102.057 12.1533C102.344 12.1533 102.528 12.2367 102.467 12.3385C102.406 12.4403 102.833 12.5816 103.415 12.6525C103.998 12.7235 104.591 12.8806 104.733 13.0015C104.874 13.1224 105.043 13.1672 105.107 13.1009C105.172 13.0349 105.854 13.1802 106.622 13.4244C107.391 13.6683 108.244 13.8681 108.519 13.8681C108.794 13.8681 109.019 13.9748 109.019 14.1054C109.019 14.2359 109.151 14.2903 109.314 14.2263C109.476 14.1622 109.875 14.1917 110.2 14.2921C110.525 14.3924 110.674 14.4826 110.531 14.4927C110.387 14.5028 110.27 14.6147 110.27 14.7411C110.27 14.8674 110.517 14.7709 110.819 14.5268C111.122 14.2822 111.677 14.0824 112.054 14.0824C112.988 14.0824 113.394 13.8925 113.255 13.5208C113.191 13.3491 113.299 12.7792 113.494 12.2538C113.832 11.3446 113.885 11.3013 114.614 11.351C115.035 11.3797 115.448 11.4995 115.532 11.6174C115.627 11.7501 115.687 11.7298 115.689 11.5638C115.693 11.2445 116.86 11.1984 117.047 11.5103C117.118 11.6282 117.499 11.7246 117.894 11.7246C118.437 11.7246 118.612 11.8157 118.615 12.0997C118.617 12.3846 118.66 12.4067 118.793 12.1912C118.983 11.8834 120.395 12.0395 120.607 12.3919C120.67 12.4965 120.927 12.5826 121.178 12.5833C121.974 12.5852 123.101 12.9918 123.578 13.4488C124.027 13.8786 124.59 13.8443 124.325 13.4032C124.241 13.2632 124.349 13.2686 124.62 13.418C124.856 13.5476 125.377 13.6537 125.779 13.6537C126.181 13.6537 126.773 13.7658 127.096 13.9026C127.419 14.0396 127.753 14.136 127.84 14.1169C127.926 14.0981 127.996 14.1722 127.996 14.2818C127.996 14.4046 128.256 14.4046 128.673 14.2813C129.046 14.1716 129.376 14.1577 129.406 14.2507C129.487 14.5002 133.927 14.2738 134.187 14.007C134.261 13.9307 134.498 13.8681 134.713 13.8681C134.928 13.8681 135.311 13.6694 135.564 13.4267C136.39 12.6356 138.246 11.722 138.813 11.8277C139.105 11.8822 139.409 11.8189 139.488 11.6871C139.705 11.3264 143.219 11.2035 143.223 11.5566C143.225 11.7593 143.275 11.7516 143.413 11.5272C143.52 11.3542 143.902 11.2318 144.297 11.2443C144.966 11.2653 146.022 11.2693 148.016 11.2586C149.412 11.2511 155.193 11.5409 155.326 11.6252C155.39 11.6652 156.17 11.6264 157.06 11.539C157.95 11.4517 158.724 11.458 158.782 11.5529C158.839 11.6481 159.078 11.6198 159.314 11.4901C159.549 11.3604 160.035 11.2987 160.394 11.3527C160.837 11.4196 161.126 11.3405 161.296 11.1056C161.517 10.8018 161.543 10.8164 161.516 11.2275C161.499 11.4845 161.416 11.6513 161.332 11.5981C161.248 11.5448 161.104 11.6303 161.01 11.7878C160.655 12.3893 155.253 12.8651 155.035 12.3141C154.951 12.1001 154.892 12.1006 154.744 12.316C154.599 12.5263 153.595 12.5535 150.192 12.4399C147.791 12.3595 144.376 12.3061 142.604 12.3209C140.743 12.3368 139.276 12.2585 139.133 12.1362C138.956 11.9853 138.893 12.0286 138.914 12.286C138.933 12.5115 138.73 12.7089 138.377 12.8094C138.064 12.8979 137.559 13.1725 137.254 13.4192C136.948 13.6662 136.574 13.8681 136.422 13.8681C136.27 13.8681 135.976 14.0546 135.77 14.2826C135.231 14.8766 132.762 15.4041 131.118 15.2761C130.376 15.2183 129.745 15.1552 129.716 15.1357C129.688 15.1164 129.578 15.0886 129.473 15.0738C129.368 15.059 129.212 14.9754 129.127 14.8882C129.042 14.8007 128.868 14.8185 128.74 14.9276C128.597 15.0496 127.945 15.0491 127.052 14.9265C125.113 14.6605 124.902 14.6179 124.749 14.4607C124.677 14.3868 124.486 14.3787 124.323 14.4427C124.161 14.5066 123.912 14.464 123.77 14.3478C123.628 14.2314 123.231 14.082 122.887 14.0156C121.721 13.7907 120.171 13.2542 120.645 13.2394C120.903 13.2315 121.114 13.1387 121.114 13.0332C121.114 12.9243 120.795 12.9155 120.374 13.013C119.658 13.179 118.324 12.9464 117.882 12.5784C117.548 12.3008 114.878 12.1274 114.461 12.3563C114.253 12.471 113.969 12.9785 113.83 13.4844C113.448 14.8785 113.17 15.1479 112.018 15.2412C111.002 15.3233 108.568 15.0588 107.976 14.8018C107.629 14.6511 106.995 14.516 106.516 14.4903C106.344 14.4811 105.687 14.3174 105.056 14.1266C104.425 13.9356 103.815 13.7708 103.701 13.76C103.586 13.7493 102.976 13.5826 102.345 13.3892C101.196 13.0373 98.6372 12.3108 96.9753 11.865C96.4879 11.7343 96.089 11.5658 96.089 11.491C96.089 11.4162 95.8544 11.3814 95.5677 11.4136C95.2603 11.4483 94.9543 11.3264 94.8221 11.1163C94.6177 10.7918 94.6077 10.7935 94.7112 11.1352C94.8 11.4286 94.7012 11.5109 94.2578 11.5135C93.5194 11.5178 93.2491 11.7319 93.3148 12.2605C93.4585 13.4177 93.5932 14.1347 93.701 14.3137C93.7663 14.4222 93.7202 14.5111 93.5988 14.5111C93.4774 14.5111 93.378 14.8005 93.378 15.1542C93.378 15.5078 93.3544 15.8036 93.3258 15.8113C93.2973 15.8191 92.7342 15.8724 92.0746 15.9299C91.1124 16.0139 90.8755 15.9721 90.8755 15.7194ZM83.0264 14.1896C83.0923 14.0128 83.0633 13.8681 82.9617 13.8681C82.8601 13.8681 82.7409 13.98 82.6964 14.1167C82.6362 14.3028 82.5138 14.3045 82.2099 14.1232C81.9866 13.99 81.9242 13.8782 82.0712 13.8745C82.2183 13.8711 82.4082 13.675 82.4931 13.4387C82.6345 13.0461 82.6858 13.0368 83.0931 13.3299C83.5394 13.6514 83.5538 14.5111 83.1127 14.5111C82.9992 14.5111 82.9602 14.3664 83.0264 14.1896ZM30.2771 14.0541C30.2154 13.9519 29.8656 13.8649 29.4997 13.861C28.9001 13.8548 27.9406 13.5601 26.1232 12.824C25.7791 12.6845 25.216 12.4643 24.8719 12.3346C23.4328 11.7923 23.0989 11.6061 23.1796 11.39C23.2315 11.2511 23.0378 11.1967 22.6828 11.25C22.3629 11.2983 21.7863 11.1973 21.4011 11.0254C21.0162 10.8537 20.4429 10.6051 20.1276 10.4733C19.5532 10.233 19.3401 9.79549 19.7974 9.79549C19.9311 9.79549 19.9862 9.73954 19.9194 9.67095C19.8529 9.60236 19.5866 9.66281 19.3278 9.80535C18.9378 10.0197 18.8148 10.0045 18.6092 9.71554C18.4728 9.5237 18.2061 9.36679 18.0163 9.36679C17.8267 9.36679 17.5085 9.28063 17.3093 9.1756C16.5832 8.79192 15.6923 8.43546 15.5459 8.46997C15.4633 8.48926 15.3023 8.32593 15.1883 8.10686C15.0423 7.8265 14.8243 7.73926 14.4521 7.81235C14.1416 7.87344 13.9234 7.81771 13.9234 7.6771C13.9234 7.54527 13.7814 7.43767 13.6077 7.43767C13.2613 7.43767 12.5354 7.0527 12.0918 6.63387C11.9358 6.4864 11.6687 6.36594 11.4981 6.36594C11.3273 6.36594 11.2451 6.27055 11.3152 6.15395C11.3884 6.03241 11.3044 5.99662 11.1181 6.07014C10.9398 6.14044 10.3728 5.99469 9.85833 5.74605C9.34386 5.49762 8.84941 5.2942 8.75953 5.2942C8.66964 5.2942 8.0974 4.95661 7.48784 4.54399C6.87827 4.13137 6.28226 3.79377 6.16339 3.79377C6.04452 3.79377 5.38511 3.40795 4.69796 2.93639C4.01102 2.46482 3.31324 2.079 3.14745 2.079C2.98166 2.079 2.90241 1.98533 2.97123 1.87087C3.04005 1.75641 2.85779 1.60143 2.56645 1.5262C2.27491 1.45096 2.03655 1.25826 2.03655 1.09793C2.03655 0.9361 1.90663 0.857651 1.7448 0.921527C1.58443 0.984759 1.39111 0.933527 1.31541 0.807491C1.23971 0.68167 1.31624 0.57857 1.48558 0.57857C1.65471 0.57857 1.84219 0.457893 1.90183 0.310637C1.97878 0.120511 2.10516 0.163593 2.33622 0.458749C2.51557 0.687672 2.66217 0.805992 2.66217 0.721754C2.66217 0.637516 2.89595 0.726041 3.18165 0.918524C3.46756 1.11101 3.65629 1.34358 3.60103 1.4351C3.54597 1.52684 3.64274 1.72275 3.81625 1.87065C4.07922 2.09486 4.10946 2.08093 3.99935 1.78556C3.87505 1.45289 4.89795 1.94332 9.24522 4.30113C9.90484 4.65888 10.3795 5.06185 10.3814 5.26569C10.3841 5.56171 10.4141 5.56771 10.5763 5.30406C10.728 5.05778 10.8693 5.04256 11.251 5.23118C11.5165 5.36236 11.8979 5.52355 12.0987 5.58957C12.2993 5.65559 12.4651 5.8813 12.4668 6.09136C12.4695 6.41759 12.5006 6.42638 12.6793 6.15159C12.8553 5.88108 12.9579 5.92481 13.3241 6.4266C13.6769 6.90973 13.8169 6.97447 14.0607 6.76655C14.3053 6.55799 14.3843 6.59893 14.4828 6.98583C14.5549 7.26919 14.7172 7.41731 14.8834 7.35172C15.2252 7.21689 16.4109 7.60722 16.8568 8.0014C17.0364 8.16002 17.5056 8.35465 17.8995 8.43374C18.8859 8.63158 21.6395 9.93589 21.6395 10.2053C21.6395 10.3262 21.7652 10.3755 21.9189 10.3148C22.0726 10.2542 22.3196 10.3549 22.4678 10.5386C22.681 10.8023 22.8009 10.8186 23.0386 10.6158C23.2186 10.4621 23.396 10.4396 23.4801 10.5594C23.6803 10.8451 24.9762 11.5636 24.9762 11.3889C24.9762 11.309 25.1128 11.36 25.2798 11.5025C25.4468 11.6449 25.6729 11.7047 25.7824 11.6352C26.0616 11.4577 26.6445 11.7199 26.6445 12.023C26.6445 12.2665 28.55 12.8019 29.512 12.8287C29.7701 12.8358 29.9812 12.925 29.9812 13.0266C29.9812 13.1284 30.1236 13.1554 30.2977 13.0868C30.4719 13.018 30.9077 13.0868 31.2662 13.2394C31.8649 13.4943 31.9502 13.4765 32.31 13.0197C32.5583 12.7046 32.6526 12.3623 32.5671 12.0858C32.4931 11.8459 32.4057 11.2565 32.3732 10.7761C32.3404 10.2958 32.2562 9.56506 32.1857 9.15245C31.9029 7.49662 31.9198 6.88487 32.2664 6.25876C32.5969 5.66159 32.7074 5.61572 33.8177 5.61572C34.4753 5.61572 35.2183 5.73297 35.469 5.87615C35.8306 6.08257 35.8514 6.13787 35.5701 6.14409C35.3751 6.14816 35.1261 6.31578 35.0166 6.51662C34.8648 6.79549 34.7514 6.82464 34.5351 6.6403C34.3604 6.49112 33.9743 6.45768 33.5243 6.55242C32.8522 6.69432 32.7992 6.76248 32.8324 7.44689C32.8818 8.46439 33.0686 9.78713 33.2613 10.484C33.3498 10.8038 33.3898 11.6033 33.3502 12.2607C33.2907 13.2497 33.1896 13.5159 32.7652 13.8016C32.2074 14.1774 30.4579 14.3549 30.2771 14.0541ZM56.3617 13.99C55.6863 13.754 55.649 13.5258 56.3021 13.6259C56.3841 13.6383 56.3974 13.505 56.3319 13.3296C56.2425 13.0902 56.3713 13.0107 56.8485 13.0107C57.198 13.0107 57.5281 13.084 57.5821 13.1738C57.6361 13.2634 58.5404 13.3198 59.5919 13.299C60.9793 13.2716 61.6007 13.1708 61.8581 12.9314C62.2549 12.5623 62.4207 11.5103 62.0821 11.5103C61.9617 11.5103 61.9275 11.4039 62.0057 11.2738C62.0839 11.1437 62.1815 10.5984 62.2226 10.0619C62.2637 9.52562 62.3498 8.91709 62.4136 8.71003C62.8397 7.33028 66.0287 7.2439 69.1466 8.52763C69.4204 8.64016 69.5662 8.82792 69.4849 8.96296C69.4065 9.0935 69.4715 9.29392 69.6296 9.40816C70.0865 9.73826 68.814 9.39873 67.9073 8.94839C67.3609 8.67702 67.091 8.63223 67.0235 8.80156C66.9601 8.96018 66.9202 8.94732 66.9096 8.76469C66.9006 8.61036 66.7993 8.5437 66.6846 8.61658C66.5699 8.68946 66.476 8.64123 66.476 8.50941C66.476 8.37758 66.3638 8.34114 66.2266 8.42817C66.0896 8.51519 65.4091 8.58786 64.7147 8.58957C63.9245 8.5915 63.3433 8.70339 63.1611 8.88837C62.9761 9.07657 62.8466 9.78327 62.8057 10.8295C62.7265 12.848 62.6987 12.9882 62.2447 13.6552C61.8973 14.1656 61.7753 14.1917 59.5385 14.2357C58.0007 14.2657 56.9094 14.1815 56.3617 13.99ZM30.8153 13.6537C30.8153 13.5358 30.7741 13.4394 30.7234 13.4394C30.6727 13.4394 30.5734 13.5358 30.5025 13.6537C30.4316 13.7716 30.4731 13.8681 30.5945 13.8681C30.7159 13.8681 30.8153 13.7716 30.8153 13.6537ZM54.8944 13.4267C54.8177 13.2994 54.5018 13.2578 54.1733 13.332C53.4883 13.4865 51.2525 12.8735 51.2525 12.531C51.2525 12.4019 51.3061 12.3511 51.3715 12.4185C51.437 12.4858 51.7302 12.4131 52.023 12.2568C52.316 12.1006 52.7081 12.0238 52.8945 12.086C54.249 12.5376 55.4233 13.1346 55.4233 13.3717C55.4233 13.7099 55.0857 13.745 54.8944 13.4267ZM80.1207 13.4698C79.8995 13.4278 79.6246 13.3168 79.5099 13.2233C79.3952 13.1301 78.6445 12.8874 77.8416 12.6842C77.0387 12.4813 76.2879 12.2438 76.1732 12.1565C76.0585 12.0695 75.6982 11.9325 75.3722 11.8524C74.9683 11.7529 74.8169 11.6071 74.8965 11.3941C74.9606 11.2222 74.9301 11.0816 74.8286 11.0816C74.727 11.0816 74.6065 11.1973 74.5604 11.339C74.4446 11.6963 72.9408 10.9525 72.9408 10.538C72.9408 10.1511 73.9291 10.198 74.0764 10.592C74.1329 10.7433 74.2993 10.8657 74.4463 10.864C74.6332 10.8616 74.6194 10.7982 74.4006 10.6529C73.7892 10.2467 74.6818 10.4134 75.5476 10.8672C75.9977 11.103 76.4723 11.2959 76.6024 11.2959C76.9127 11.2959 78.1156 11.9152 78.2547 12.1467C78.3145 12.2461 78.551 12.277 78.7802 12.2153C79.0132 12.1527 79.1971 12.2088 79.1971 12.3426C79.1971 12.4744 79.2966 12.582 79.4179 12.582C79.5393 12.582 79.5892 12.4995 79.5285 12.3985C79.4678 12.2978 79.653 12.2613 79.9397 12.3177C80.2265 12.3741 80.5553 12.6013 80.6705 12.8225C80.7858 13.0439 81.0177 13.225 81.1856 13.225C81.3536 13.225 81.4911 13.2975 81.4911 13.3858C81.4911 13.5558 80.7952 13.5984 80.1207 13.4698ZM50.2087 12.4212C50.2081 12.3329 49.8333 12.2386 49.3758 12.2118C48.9183 12.1852 48.1915 11.9799 47.7606 11.7557C47.3298 11.5317 46.6489 11.2788 46.2475 11.1939C45.846 11.109 45.3299 10.9195 45.1005 10.7729C44.8711 10.6263 44.4025 10.4351 44.059 10.3481C43.3141 10.1592 42.8718 9.81928 43.0297 9.55692C43.0924 9.45232 43.0501 9.36679 42.9354 9.36679C42.8207 9.36679 42.6766 9.45017 42.6153 9.5522C42.5216 9.70825 40.0794 8.9516 38.6357 8.31949C37.5233 7.83228 36.0956 7.24497 35.7682 7.13973C35.2333 6.96782 35.3232 6.43303 35.9125 6.28105C36.2554 6.19253 36.9644 6.39509 38.0839 6.90095C38.9979 7.31399 39.8104 7.65202 39.8892 7.65202C40.0306 7.65202 40.7595 7.96411 42.3894 8.72225C42.8482 8.93574 43.5521 9.17838 43.9535 9.26112C44.6488 9.40495 45.7215 9.81714 46.5052 10.2422C46.7044 10.3502 47.1046 10.4385 47.3944 10.4385C47.6843 10.4385 48.0845 10.5232 48.2837 10.6267C49.2607 11.1345 50.2661 11.5103 50.6477 11.5103C51.2156 11.5103 51.9183 11.9128 51.773 12.1546C51.7088 12.2615 51.5184 12.2946 51.3501 12.2281C51.1818 12.1619 51.0439 12.2142 51.0439 12.3447C51.0439 12.4753 50.8562 12.582 50.6268 12.582C50.3974 12.582 50.2093 12.5095 50.2087 12.4212ZM161.879 11.5015C161.669 11.1534 162.267 10.699 163.16 10.5266C164.168 10.3324 164.385 10.4763 163.936 11.0408C163.485 11.608 162.126 11.9122 161.879 11.5015ZM72.2243 10.675C72.1584 10.5654 71.7296 10.4107 71.2715 10.3311C70.4037 10.1805 70.2582 10.0013 70.699 9.62637C70.9933 9.37622 72.1067 9.5297 72.1067 9.82057C72.1067 9.92452 72.2474 10.0098 72.4195 10.0098C72.5915 10.0098 72.7323 10.1487 72.7323 10.3187C72.7323 10.7017 72.3863 10.9446 72.2243 10.675ZM70.0213 9.48661C70.0213 9.14066 70.3165 8.88451 70.4992 9.07207C70.6619 9.23926 70.4377 9.79549 70.2075 9.79549C70.1051 9.79549 70.0213 9.65659 70.0213 9.48661ZM0.00493092 1.56414C-0.0273931 1.09515 0.100026 0.656594 0.362997 0.332073C0.652662 -0.0250293 0.774451 -0.0781886 0.781541 0.149877C0.789883 0.416095 0.823041 0.420595 0.973817 0.176026C1.07579 0.0103354 1.26786 -0.04818 1.41092 0.042703C1.58589 0.153735 1.45597 0.341503 0.997591 0.63966C0.432443 1.00769 0.347566 1.16888 0.447666 1.68396C0.526495 2.08843 0.480407 2.29313 0.310862 2.29292C0.16947 2.2927 0.0328756 1.96754 0.00493092 1.56414Z" fill="#FD5E01"/>
</svg>
