<svg width="342" height="50" viewBox="0 0 342 50" fill="none" xmlns="http://www.w3.org/2000/svg">
<path d="M-32.2206 47.8537C-32.0993 48.1641 -31.9779 48.4746 -31.8565 48.785C-31.6217 49.3555 -31.4993 49.6387 -31.4891 49.6348C-25.484 47.2896 -19.557 45.2477 -13.4023 43.3918C97.3534 5.79389 222.197 75.8485 326.261 10.8432C330.76 7.70931 334.842 4.51361 338.994 0.89618C338.994 0.89618 338.994 0.89618 338.994 0.89618L338.955 0.923297C339.844 0.400645 340.814 0.0505903 341.892 0.0921696C340.868 -0.102083 339.686 -0.00599626 338.75 0.541955L338.71 0.569072C338.71 0.569072 338.71 0.569072 338.71 0.569072C334.547 4.15038 330.457 7.30731 325.954 10.3991C222.016 74.4597 98.1973 2.99143 -14.2195 40.6735C-20.4485 42.5436 -26.4484 44.6062 -32.5266 46.9799C-32.5369 46.984 -32.435 47.2752 -32.2206 47.8537Z" fill="#F95D01"/>
</svg>
